<svg xmlns="http://www.w3.org/2000/svg" width="94.707mm" height="37.439mm" viewBox="0 0 268.459 106.127">
  <title>5054_ARDC_Branding_Matrix_Nectar_RGB_FA</title>
  <g>
    <polygon points="112.18 17.008 105.354 34.015 110.02 34.015 111.795 34.015 113.85 27.174 113.907 27.174 113.934 27.174 115.99 34.015 117.65 34.015 122.362 34.015 115.605 17.008 112.18 17.008" fill="#fff"/>
    <path d="M177.943,25.512a8.5,8.5,0,0,0-8.5-8.5h-3.79v5.016h3.79a3.5,3.5,0,0,1,0,7.008h-3.79v4.982h3.79a8.5,8.5,0,0,0,8.5-8.5" fill="#fff"/>
    <path d="M192.752,25.512a8.5,8.5,0,0,1,8.5-8.5h3.79v5.016h-3.79a3.5,3.5,0,0,0,0,7.008h3.79v4.982h-3.79a8.5,8.5,0,0,1-8.5-8.5" fill="#fff"/>
    <path d="M148.652,22.869a5.892,5.892,0,0,0-2.092-4.643c-1.471-1.172-3.448-1.218-5.24-1.218h-5.378v4.406h5.938c1.12,0,2.1.465,2.1,1.724,0,1.31-.914,1.828-2.137,1.828H137.1l6.485,9.049h6.466l-4.788-6a5.209,5.209,0,0,0,3.389-5.142" fill="#fff"/>
  </g>
  <g>
    <path d="M113.8,55.458V75.2H105.37V42.524h8.672l13.229,18.814V42.524h8.476V75.2h-8.133Z" fill="#969696"/>
    <path d="M152.457,50.951c7.007,0,12.1,5.144,12.1,13.179v1.618H147.7c.441,2.2,2.5,4.213,6.027,4.213a9.363,9.363,0,0,0,5.781-2.009l3.185,4.7c-2.352,2.107-6.272,3.136-9.9,3.136-7.3,0-12.935-4.753-12.935-12.445A12.213,12.213,0,0,1,152.457,50.951Zm-4.85,9.9h9.75a4.549,4.549,0,0,0-4.9-4.067A4.675,4.675,0,0,0,147.607,60.848Z" fill="#969696"/>
    <path d="M179.652,50.951c5.1,0,8.28,2.254,9.7,4.36l-4.9,4.557a5.172,5.172,0,0,0-4.459-2.254,5.351,5.351,0,0,0-5.536,5.733,5.392,5.392,0,0,0,5.536,5.781,5.324,5.324,0,0,0,4.459-2.3l4.9,4.606c-1.421,2.058-4.606,4.361-9.7,4.361-7.4,0-12.935-5-12.935-12.445C166.717,55.948,172.253,50.951,179.652,50.951Z" fill="#969696"/>
    <path d="M194.352,68.834V58.1h-3.919V51.539h3.919V45.071h7.5v6.468h4.8V58.1h-4.8v8.624a2.145,2.145,0,0,0,2.107,2.4,2.932,2.932,0,0,0,1.91-.588l1.47,5.684c-.931.882-2.792,1.568-5.585,1.568C196.949,75.792,194.352,73.391,194.352,68.834Z" fill="#969696"/>
    <path d="M224.387,72.852a9.771,9.771,0,0,1-7.349,2.94c-3.626,0-8.133-2.45-8.133-7.791,0-5.732,4.507-7.447,8.133-7.447,3.136,0,5.929.98,7.349,2.743V60.309c0-2.058-1.763-3.43-4.8-3.43a10.557,10.557,0,0,0-6.713,2.5l-2.694-4.752a16.682,16.682,0,0,1,10.73-3.675c5.683,0,11.024,2.107,11.024,9.456V75.2h-7.546Zm0-5.83a5.377,5.377,0,0,0-4.213-1.666c-2.009,0-3.773.881-3.773,2.743s1.764,2.744,3.773,2.744a5.249,5.249,0,0,0,4.213-1.715Z" fill="#969696"/>
    <path d="M236.442,51.539h7.546v2.988a10.314,10.314,0,0,1,7.4-3.576v7.3a6.107,6.107,0,0,0-1.862-.245c-1.96,0-4.557.833-5.536,2.2V75.2h-7.546Z" fill="#969696"/>
  </g>
  <g>
    <g>
      <polygon points="78.608 17.008 59.131 17.008 49.392 34.1 59.131 51.192 78.608 51.192 88.346 34.1 78.608 17.008" fill="#f8b20e"/>
      <polygon points="78.608 54.934 59.131 54.934 49.392 72.027 59.131 89.119 78.608 89.119 88.346 72.027 78.608 54.934" fill="#f8b20e"/>
    </g>
    <polygon points="46.236 35.971 26.759 35.971 17.021 53.063 26.759 70.155 46.236 70.155 55.975 53.063 46.236 35.971" fill="#f8b20e"/>
  </g>
  <g>
    <path d="M108.922,85.656h-1.507V89.12h-2.058V79.451h4.522a3.011,3.011,0,0,1,3.247,3.117,2.774,2.774,0,0,1-2.116,2.87l2.174,3.682h-2.363Zm.652-4.436h-2.159v2.667h2.159a1.338,1.338,0,1,0,0-2.667Z" fill="#969696"/>
    <path d="M117.232,81.945c2.087,0,3.507,1.565,3.507,3.856v.406h-5.2a1.888,1.888,0,0,0,2.015,1.623,2.863,2.863,0,0,0,1.87-.7l.813,1.189a4.366,4.366,0,0,1-2.885.971,3.675,3.675,0,1,1-.116-7.349Zm-1.725,3.015h3.449a1.621,1.621,0,0,0-1.724-1.551A1.682,1.682,0,0,0,115.507,84.96Z" fill="#969696"/>
    <path d="M122.118,86.917a4.011,4.011,0,0,0,2.421.957c.8,0,1.174-.276,1.174-.711,0-.493-.608-.666-1.4-.826-1.2-.232-2.755-.522-2.755-2.189,0-1.174,1.029-2.2,2.87-2.2a4.478,4.478,0,0,1,2.827.956l-.739,1.262a2.953,2.953,0,0,0-2.073-.812c-.667,0-1.1.246-1.1.652,0,.435.551.595,1.334.754,1.2.232,2.812.551,2.812,2.29,0,1.276-1.087,2.247-3.03,2.247a4.717,4.717,0,0,1-3.131-1.087Z" fill="#969696"/>
    <path d="M131.876,81.945c2.087,0,3.508,1.565,3.508,3.856v.406h-5.2A1.886,1.886,0,0,0,132.2,87.83a2.865,2.865,0,0,0,1.87-.7l.812,1.189a4.365,4.365,0,0,1-2.885.971,3.675,3.675,0,1,1-.116-7.349Zm-1.724,3.015H133.6a1.621,1.621,0,0,0-1.725-1.551A1.681,1.681,0,0,0,130.152,84.96Z" fill="#969696"/>
    <path d="M140.779,88.4a2.9,2.9,0,0,1-2.218.9,2.333,2.333,0,0,1-2.436-2.319,2.218,2.218,0,0,1,2.436-2.233,2.829,2.829,0,0,1,2.218.856v-.971c0-.711-.61-1.175-1.538-1.175a2.952,2.952,0,0,0-2.044.826l-.695-1.232a4.6,4.6,0,0,1,3.059-1.1c1.594,0,3.058.638,3.058,2.653V89.12h-1.84Zm0-1.827a1.843,1.843,0,0,0-1.479-.609c-.725,0-1.319.377-1.319,1.058,0,.652.594,1.029,1.319,1.029a1.843,1.843,0,0,0,1.479-.608Z" fill="#969696"/>
    <path d="M144.3,82.119h1.841v.956a3,3,0,0,1,2.232-1.116v1.8a2.261,2.261,0,0,0-2.232.739V89.12H144.3Z" fill="#969696"/>
    <path d="M152.639,81.945a3.255,3.255,0,0,1,2.768,1.261l-1.2,1.13a1.7,1.7,0,0,0-1.478-.753,2.041,2.041,0,0,0,0,4.073A1.766,1.766,0,0,0,154.2,86.9l1.2,1.117a3.225,3.225,0,0,1-2.768,1.275,3.675,3.675,0,1,1,0-7.349Z" fill="#969696"/>
    <path d="M161.208,84.858c0-.971-.507-1.275-1.3-1.275a2.042,2.042,0,0,0-1.595.826V89.12h-1.841V79.451h1.841v3.581a3.241,3.241,0,0,1,2.465-1.087,2.016,2.016,0,0,1,2.275,2.2V89.12h-1.841Z" fill="#969696"/>
    <path d="M167.88,84.293a4.893,4.893,0,0,1,5.073-5,4.465,4.465,0,0,1,4.118,2.363l-1.769.869a2.65,2.65,0,0,0-2.349-1.406,3.183,3.183,0,0,0,0,6.35,2.622,2.622,0,0,0,2.349-1.406l1.769.855a4.492,4.492,0,0,1-4.118,2.377A4.893,4.893,0,0,1,167.88,84.293Z" fill="#969696"/>
    <path d="M178.116,79.451h1.841V89.12h-1.841Z" fill="#969696"/>
    <path d="M181.191,85.612a3.7,3.7,0,1,1,3.7,3.682A3.545,3.545,0,0,1,181.191,85.612Zm5.494,0a1.806,1.806,0,1,0-1.8,2.044A1.848,1.848,0,0,0,186.685,85.612Z" fill="#969696"/>
    <path d="M194.543,88.236a3.273,3.273,0,0,1-2.464,1.058,2,2,0,0,1-2.261-2.2V82.119h1.84v4.247a1.126,1.126,0,0,0,1.29,1.29,2.059,2.059,0,0,0,1.595-.8v-4.74h1.841v7h-1.841Z" fill="#969696"/>
    <path d="M202.881,88.221a2.717,2.717,0,0,1-2.159,1.073c-1.769,0-3.1-1.333-3.1-3.667,0-2.291,1.32-3.682,3.1-3.682a2.694,2.694,0,0,1,2.159,1.073V79.451h1.856V89.12h-1.856Zm0-3.841a2,2,0,0,0-1.595-.8,2.057,2.057,0,0,0,0,4.073,2,2,0,0,0,1.595-.8Z" fill="#969696"/>
  </g>
</svg>
